<svg xmlns="http://www.w3.org/2000/svg" width="163" height="48" viewBox="0 0 163 48" fill="none"><g clip-path="url(#clip0_1_14)"><path d="M142.951 0.000153739H13.0168C12.5432 0.000153739 12.0753 0.000153739 11.6029 0.00251895C11.2075 0.00488416 10.8152 0.0117551 10.416 0.017538C9.54868 0.0268827 8.68344 0.0967445 7.82775 0.226516C6.97326 0.359113 6.14554 0.609096 5.37259 0.968009C4.60057 1.32996 3.89517 1.80028 3.28195 2.3619C2.66552 2.92194 2.15167 3.56927 1.76017 4.27901C1.36759 4.98733 1.09538 5.74636 0.952925 6.52988C0.809121 7.31242 0.731738 8.10398 0.721472 8.89746C0.709486 9.26004 0.70822 9.62384 0.701904 9.98647V37.3215C0.70822 37.6887 0.709486 38.0444 0.721472 38.4118C0.731741 39.2052 0.809124 39.9967 0.952925 40.7792C1.09498 41.5632 1.36721 42.3227 1.76017 43.0312C2.15149 43.7387 2.66541 44.3834 3.28195 44.9403C3.89284 45.5044 4.59871 45.9751 5.37259 46.3343C6.14554 46.6941 6.97317 46.9456 7.82775 47.0802C8.68358 47.209 9.54874 47.2789 10.416 47.2893C10.8152 47.2974 11.2075 47.302 11.6029 47.302C12.0752 47.3044 12.5432 47.3043 13.0168 47.3043H142.951C143.415 47.3043 143.887 47.3044 144.351 47.302C144.745 47.302 145.148 47.2974 145.542 47.2893C146.408 47.2794 147.271 47.2095 148.125 47.0802C148.982 46.9447 149.813 46.6933 150.59 46.3343C151.363 45.9749 152.068 45.5042 152.678 44.9403C153.293 44.3812 153.808 43.737 154.205 43.0312C154.595 42.3221 154.864 41.5627 155.004 40.7792C155.148 39.9966 155.228 39.2053 155.244 38.4118C155.249 38.0444 155.249 37.6887 155.249 37.3215C155.259 36.8919 155.259 36.4646 155.259 36.028V11.2776C155.259 10.8445 155.259 10.4149 155.249 9.98647C155.249 9.62384 155.249 9.26004 155.244 8.89741C155.228 8.10386 155.148 7.31248 155.004 6.52984C154.864 5.74676 154.594 4.98779 154.205 4.27896C153.407 2.85638 152.143 1.6984 150.59 0.967903C149.813 0.609866 148.982 0.35995 148.125 0.22641C147.271 0.0960663 146.408 0.0261802 145.542 0.0173725C145.148 0.0116014 144.745 0.00467129 144.351 0.00236521C143.887 0 143.415 0 142.951 0V0.000153739Z" fill="#A6A6A6"></path><path d="M142.951 0.000153739H13.0168C12.5432 0.000153739 12.0753 0.000153739 11.6029 0.00251895C11.2075 0.00488416 10.8152 0.0117551 10.416 0.017538C9.54868 0.0268827 8.68344 0.0967445 7.82775 0.226516C6.97326 0.359113 6.14554 0.609096 5.37259 0.968009C4.60057 1.32996 3.89517 1.80028 3.28195 2.3619C2.66552 2.92194 2.15167 3.56927 1.76017 4.27901C1.36759 4.98733 1.09538 5.74636 0.952925 6.52988C0.809121 7.31242 0.731738 8.10398 0.721472 8.89746C0.709486 9.26004 0.70822 9.62384 0.701904 9.98647V37.3215C0.70822 37.6887 0.709486 38.0444 0.721472 38.4118C0.731741 39.2052 0.809124 39.9967 0.952925 40.7792C1.09498 41.5632 1.36721 42.3227 1.76017 43.0312C2.15149 43.7387 2.66541 44.3834 3.28195 44.9403C3.89284 45.5044 4.59871 45.9751 5.37259 46.3343C6.14554 46.6941 6.97317 46.9456 7.82775 47.0802C8.68358 47.209 9.54874 47.2789 10.416 47.2893C10.8152 47.2974 11.2075 47.302 11.6029 47.302C12.0752 47.3044 12.5432 47.3043 13.0168 47.3043H142.951C143.415 47.3043 143.887 47.3044 144.351 47.302C144.745 47.302 145.148 47.2974 145.542 47.2893C146.408 47.2794 147.271 47.2095 148.125 47.0802C148.982 46.9447 149.813 46.6933 150.59 46.3343C151.363 45.9749 152.068 45.5042 152.678 44.9403C153.293 44.3812 153.808 43.737 154.205 43.0312C154.595 42.3221 154.864 41.5627 155.004 40.7792C155.148 39.9966 155.228 39.2053 155.244 38.4118C155.249 38.0444 155.249 37.6887 155.249 37.3215C155.259 36.8919 155.259 36.4646 155.259 36.028V11.2776C155.259 10.8445 155.259 10.4149 155.249 9.98647C155.249 9.62384 155.249 9.26004 155.244 8.89741C155.228 8.10386 155.148 7.31248 155.004 6.52984C154.864 5.74676 154.594 4.98779 154.205 4.27896C153.407 2.85638 152.143 1.6984 150.59 0.967903C149.813 0.609866 148.982 0.35995 148.125 0.22641C147.271 0.0960663 146.408 0.0261802 145.542 0.0173725C145.148 0.0116014 144.745 0.00467129 144.351 0.00236521C143.887 0 143.415 0 142.951 0V0.000153739Z" fill="black"></path><path d="M9.01129 47.9975C8.58283 47.9975 8.16471 47.9926 7.73961 47.9841C6.85898 47.9738 5.98041 47.9054 5.1111 47.7794C4.30052 47.6548 3.51528 47.4231 2.78128 47.0919C2.05402 46.7634 1.3907 46.3327 0.816727 45.8162C0.234448 45.3058 -0.250326 44.7139 -0.618384 44.0638C-0.990498 43.4095 -1.24802 42.7082 -1.38199 41.9843C-1.52666 41.2065 -1.60493 40.4199 -1.61613 39.6315C-1.62505 39.3669 -1.63672 38.4857 -1.63672 38.4857V9.49828C-1.63672 9.49828 -1.62429 8.63068 -1.61606 8.37578C-1.60534 7.5886 -1.52752 6.80329 -1.38328 6.02664C-1.24907 5.30074 -0.991345 4.59741 -0.619031 3.94098C-0.252326 3.29137 0.229757 2.69898 0.808528 2.18678C1.38665 1.66971 2.05209 1.23677 2.78059 0.903746C3.5129 0.573578 4.29666 0.34349 5.1056 0.22119C5.97777 0.0939071 6.85939 0.0250918 7.74307 0.0153216L9.01198 0H153.532L154.816 0.0159364C155.692 0.0252212 156.565 0.0934226 157.43 0.21996C158.247 0.343794 159.039 0.575488 159.779 0.907422C161.239 1.57857 162.426 2.64038 163.175 3.94404C163.542 4.59594 163.796 5.29354 163.928 6.01316C164.074 6.79618 164.156 7.58767 164.172 8.3813C164.177 8.73667 164.177 9.11839 164.177 9.49828C164.188 9.96885 164.188 10.4167 164.188 10.8683V37.1304C164.188 37.5862 164.188 38.0311 164.177 38.4796C164.177 38.8876 164.177 39.2614 164.171 39.6462C164.155 40.4257 164.074 41.203 163.931 41.972C163.8 42.7012 163.543 43.4079 163.171 44.0676C162.801 44.7106 162.319 45.2974 161.743 45.8064C161.169 46.3257 160.504 46.7589 159.775 47.0895C159.037 47.4233 158.246 47.6559 157.43 47.7794C156.56 47.9061 155.682 47.9745 154.801 47.9841C154.389 47.9926 153.958 47.9975 153.539 47.9975L152.015 48L9.01129 47.9975Z" fill="black"></path><path d="M32.7769 23.7107C32.7909 22.6335 33.0799 21.5772 33.6169 20.6403C34.154 19.7034 34.9217 18.9162 35.8486 18.3519C35.2598 17.5193 34.4829 16.834 33.5799 16.3506C32.6768 15.8672 31.6723 15.599 30.6462 15.5672C28.4573 15.3397 26.3353 16.8641 25.2199 16.8641C24.0829 16.8641 22.3656 15.5898 20.5163 15.6275C19.3201 15.6657 18.1543 16.0101 17.1326 16.6271C16.1108 17.2441 15.2678 18.1126 14.6859 19.1481C12.1649 23.4696 14.0453 29.8209 16.4602 33.3141C17.6684 35.0246 19.0804 36.9353 20.928 36.8675C22.7361 36.7933 23.4113 35.726 25.5937 35.726C27.7559 35.726 28.3894 36.8675 30.2746 36.8245C32.2146 36.7933 33.437 35.1063 34.6028 33.3796C35.4709 32.1608 36.1389 30.8137 36.582 29.3883C35.4549 28.9163 34.493 28.1262 33.8164 27.1166C33.1397 26.1069 32.7782 24.9224 32.7769 23.7107V23.7107Z" fill="white"></path><path d="M29.2167 13.2703C30.2745 12.0129 30.7957 10.3968 30.6695 8.7652C29.0534 8.93326 27.5605 9.69803 26.4884 10.9071C25.9642 11.4978 25.5628 12.185 25.307 12.9294C25.0512 13.6738 24.946 14.4608 24.9976 15.2454C25.806 15.2536 26.6057 15.0802 27.3365 14.738C28.0673 14.3959 28.7102 13.8941 29.2167 13.2703Z" fill="white"></path><path d="M58.1694 32.5752H52.0064L50.5264 36.9022H47.916L53.7535 20.8933H56.4656L62.303 36.9022H59.6481L58.1694 32.5752ZM52.6447 30.5785H57.5299L55.1216 23.556H55.0543L52.6447 30.5785Z" fill="white"></path><path d="M74.9099 31.0668C74.9099 34.6938 72.9493 37.0241 69.9905 37.0241C69.241 37.063 68.4956 36.892 67.8397 36.5309C67.1837 36.1697 66.6437 35.633 66.2816 34.9821H66.2256V40.7632H63.8059V25.2303H66.148V27.1716H66.1925C66.5714 26.5238 67.1205 25.9899 67.7814 25.6265C68.4424 25.2632 69.1904 25.0841 69.946 25.1082C72.9378 25.1082 74.9099 27.4498 74.9099 31.0668ZM72.4229 31.0668C72.4229 28.7038 71.1895 27.1502 69.3077 27.1502C67.459 27.1502 66.2154 28.7365 66.2154 31.0668C66.2154 33.4185 67.459 34.9935 69.3077 34.9935C71.1895 34.9935 72.4229 33.4513 72.4229 31.0668Z" fill="white"></path><path d="M87.8838 31.0668C87.8838 34.6938 85.9232 37.0241 82.9644 37.0241C82.2149 37.063 81.4695 36.892 80.8135 36.5309C80.1576 36.1697 79.6176 35.633 79.2554 34.9821H79.1994V40.7632H76.7798V25.2303H79.1219V27.1716H79.1664C79.5452 26.5238 80.0943 25.9899 80.7552 25.6265C81.4162 25.2632 82.1643 25.0841 82.9198 25.1082C85.9117 25.1082 87.8838 27.4498 87.8838 31.0668ZM85.3968 31.0668C85.3968 28.7038 84.1634 27.1502 82.2816 27.1502C80.4328 27.1502 79.1893 28.7365 79.1893 31.0668C79.1893 33.4185 80.4328 34.9935 82.2816 34.9935C84.1634 34.9935 85.3968 33.4512 85.3968 31.0668H85.3968Z" fill="white"></path><path d="M96.4591 32.4415C96.6384 34.0291 98.196 35.0714 100.324 35.0714C102.364 35.0714 103.831 34.029 103.831 32.5976C103.831 31.355 102.946 30.611 100.851 30.1011L98.7554 29.6013C95.7865 28.8912 94.4082 27.5164 94.4082 25.2856C94.4082 22.5235 96.8393 20.6262 100.291 20.6262C103.708 20.6262 106.05 22.5235 106.129 25.2856H103.686C103.54 23.688 102.206 22.7236 100.257 22.7236C98.3078 22.7236 96.974 23.6993 96.974 25.1194C96.974 26.2512 97.8259 26.9172 99.9099 27.427L101.691 27.8601C105.009 28.6369 106.387 29.9563 106.387 32.2979C106.387 35.2929 103.977 37.1688 100.145 37.1688C96.5595 37.1688 94.1386 35.337 93.9822 32.4414L96.4591 32.4415Z" fill="white"></path><path d="M111.609 22.4678V25.23H113.851V27.1272H111.609V33.5617C111.609 34.5613 112.058 35.0271 113.043 35.0271C113.31 35.0225 113.575 35.004 113.839 34.9717V36.8576C113.396 36.9396 112.946 36.9767 112.495 36.9684C110.109 36.9684 109.178 36.0808 109.178 33.8172V27.1272H107.464V25.23H109.178V22.4678H111.609Z" fill="white"></path><path d="M115.149 31.0674C115.149 27.3951 117.334 25.0874 120.74 25.0874C124.158 25.0874 126.332 27.395 126.332 31.0674C126.332 34.7499 124.169 37.0474 120.74 37.0474C117.312 37.0474 115.149 34.7498 115.149 31.0674ZM123.867 31.0674C123.867 28.5483 122.701 27.0615 120.74 27.0615C118.779 27.0615 117.615 28.5596 117.615 31.0674C117.615 33.5967 118.779 35.0722 120.74 35.0722C122.701 35.0722 123.867 33.5967 123.867 31.0674H123.867Z" fill="white"></path><path d="M128.326 25.2302H130.634V27.2168H130.69C130.846 26.5963 131.213 26.048 131.73 25.664C132.246 25.28 132.88 25.0837 133.525 25.1081C133.804 25.1071 134.082 25.1371 134.354 25.1975V27.4384C134.002 27.3319 133.635 27.283 133.267 27.2936C132.916 27.2795 132.565 27.3409 132.24 27.4735C131.915 27.6061 131.622 27.8069 131.383 28.062C131.143 28.3171 130.962 28.6205 130.852 28.9514C130.742 29.2823 130.706 29.6328 130.746 29.9789V36.9019H128.326L128.326 25.2302Z" fill="white"></path><path d="M145.51 33.4745C145.185 35.5933 143.101 37.0474 140.435 37.0474C137.005 37.0474 134.877 34.7725 134.877 31.1228C134.877 27.4618 137.017 25.0874 140.333 25.0874C143.594 25.0874 145.645 27.3057 145.645 30.8446V31.6654H137.32V31.8102C137.281 32.2398 137.335 32.6725 137.479 33.0797C137.622 33.4868 137.852 33.8591 138.152 34.1718C138.451 34.4845 138.815 34.7304 139.218 34.8932C139.622 35.0561 140.055 35.1321 140.491 35.1162C141.062 35.1692 141.636 35.0381 142.127 34.7423C142.617 34.4466 142.998 34.0019 143.213 33.4745L145.51 33.4745ZM137.331 29.991H143.224C143.246 29.6048 143.187 29.2183 143.051 28.8558C142.914 28.4933 142.704 28.1625 142.432 27.8844C142.161 27.6062 141.834 27.3866 141.473 27.2394C141.112 27.0921 140.724 27.0204 140.333 27.0287C139.939 27.0264 139.548 27.1014 139.184 27.2493C138.819 27.3972 138.488 27.6152 138.209 27.8906C137.929 28.166 137.708 28.4934 137.558 28.8539C137.407 29.2144 137.33 29.6009 137.331 29.991V29.991Z" fill="white"></path><path d="M52.3391 8.81383C52.8466 8.77777 53.3559 8.85369 53.8302 9.03611C54.3045 9.21853 54.7321 9.50291 55.0819 9.86873C55.4318 10.2346 55.6953 10.6727 55.8535 11.1516C56.0116 11.6304 56.0605 12.1381 55.9965 12.6379C55.9965 15.0966 54.6544 16.5099 52.3391 16.5099H49.5315V8.81383H52.3391ZM50.7387 15.4215H52.2042C52.5669 15.443 52.9298 15.3841 53.2666 15.2492C53.6034 15.1142 53.9056 14.9066 54.1511 14.6415C54.3967 14.3764 54.5794 14.0603 54.686 13.7165C54.7927 13.3726 54.8205 13.0095 54.7676 12.6536C54.8167 12.2991 54.786 11.9383 54.6777 11.5969C54.5695 11.2555 54.3863 10.9421 54.1413 10.6791C53.8963 10.416 53.5956 10.2099 53.2607 10.0755C52.9258 9.94102 52.565 9.88158 52.2042 9.90141H50.7387V15.4215Z" fill="white"></path><path d="M57.3598 13.602C57.3229 13.2203 57.367 12.8352 57.4892 12.4714C57.6115 12.1076 57.8092 11.7731 58.0696 11.4893C58.3301 11.2056 58.6475 10.9789 59.0017 10.8238C59.3558 10.6686 59.7388 10.5885 60.126 10.5885C60.5133 10.5885 60.8962 10.6686 61.2504 10.8238C61.6045 10.9789 61.922 11.2056 62.1824 11.4893C62.4429 11.7731 62.6406 12.1076 62.7628 12.4714C62.885 12.8352 62.9291 13.2203 62.8923 13.602C62.9298 13.984 62.8863 14.3697 62.7643 14.7341C62.6424 15.0985 62.4449 15.4336 62.1843 15.7179C61.9238 16.0022 61.6061 16.2294 61.2516 16.3848C60.8971 16.5403 60.5137 16.6206 60.126 16.6206C59.7383 16.6206 59.3549 16.5403 59.0004 16.3848C58.6459 16.2294 58.3282 16.0022 58.0677 15.7179C57.8072 15.4336 57.6096 15.0985 57.4877 14.7341C57.3658 14.3697 57.3222 13.984 57.3598 13.602V13.602ZM61.7015 13.602C61.7015 12.343 61.1303 11.6068 60.1279 11.6068C59.1217 11.6068 58.5556 12.343 58.5556 13.602C58.5556 14.871 59.1217 15.6016 60.1279 15.6016C61.1304 15.6016 61.7015 14.866 61.7015 13.602H61.7015Z" fill="white"></path><path d="M70.2469 16.5081H69.046L67.8337 12.2305H67.7421L66.5348 16.5081H65.3454L63.7285 10.7002H64.9027L65.9535 15.1319H66.04L67.246 10.7002H68.3565L69.5625 15.1319H69.6541L70.6998 10.7002H71.8574L70.2469 16.5081Z" fill="white"></path><path d="M73.2173 10.6991H74.3317V11.6218H74.4182C74.5649 11.2904 74.8124 11.0126 75.1262 10.8271C75.44 10.6416 75.8044 10.5577 76.1686 10.587C76.454 10.5658 76.7406 10.6084 77.0072 10.7117C77.2737 10.815 77.5133 10.9764 77.7083 11.1838C77.9033 11.3913 78.0486 11.6395 78.1336 11.9101C78.2185 12.1808 78.2408 12.4668 78.199 12.7472V16.507H77.0413V13.035C77.0413 12.1017 76.6317 11.6375 75.7755 11.6375C75.5818 11.6286 75.3883 11.6612 75.2085 11.7332C75.0286 11.8053 74.8666 11.9149 74.7336 12.0547C74.6006 12.1945 74.4996 12.3611 74.4377 12.5432C74.3758 12.7252 74.3544 12.9183 74.3749 13.1093V16.507H73.2173L73.2173 10.6991Z" fill="white"></path><path d="M80.0432 8.43294H81.2009V16.5081H80.0432V8.43294Z" fill="white"></path><path d="M82.8107 13.6021C82.7738 13.2204 82.8179 12.8353 82.9402 12.4714C83.0625 12.1076 83.2602 11.7731 83.5207 11.4894C83.7812 11.2056 84.0987 10.9789 84.4528 10.8238C84.807 10.6686 85.19 10.5885 85.5772 10.5885C85.9645 10.5885 86.3475 10.6686 86.7016 10.8238C87.0558 10.9789 87.3733 11.2056 87.6338 11.4894C87.8943 11.7731 88.092 12.1076 88.2143 12.4714C88.3365 12.8353 88.3807 13.2204 88.3438 13.6021C88.3813 13.9842 88.3377 14.3698 88.2158 14.7342C88.0938 15.0986 87.8962 15.4337 87.6357 15.718C87.3751 16.0023 87.0574 16.2295 86.7029 16.3849C86.3484 16.5404 85.965 16.6207 85.5772 16.6207C85.1895 16.6207 84.8061 16.5404 84.4516 16.3849C84.0971 16.2295 83.7794 16.0023 83.5188 15.718C83.2583 15.4337 83.0607 15.0986 82.9387 14.7342C82.8167 14.3698 82.7731 13.9842 82.8107 13.6021V13.6021ZM87.1524 13.6021C87.1524 12.3431 86.5812 11.6069 85.5788 11.6069C84.5726 11.6069 84.0065 12.3431 84.0065 13.6021C84.0065 14.8711 84.5726 15.6017 85.5788 15.6017C86.5813 15.6017 87.1525 14.8661 87.1525 13.6021H87.1524Z" fill="white"></path><path d="M89.5625 14.866C89.5625 13.8206 90.3487 13.2179 91.7442 13.1322L93.3331 13.0415V12.5402C93.3331 11.9268 92.9235 11.5804 92.1322 11.5804C91.486 11.5804 91.0382 11.8153 90.9097 12.226H89.7889C89.9072 11.2284 90.855 10.5885 92.1856 10.5885C93.6562 10.5885 94.4856 11.3134 94.4856 12.5402V16.5085H93.3713V15.6923H93.2797C93.0938 15.9851 92.8327 16.2238 92.5232 16.384C92.2136 16.5442 91.8667 16.6202 91.5178 16.6042C91.2715 16.6296 91.0226 16.6036 90.7872 16.5278C90.5517 16.4521 90.3349 16.3284 90.1506 16.1646C89.9664 16.0009 89.8189 15.8007 89.7176 15.577C89.6163 15.3534 89.5635 15.1111 89.5625 14.866V14.866ZM93.3331 14.3697V13.8842L91.9007 13.9749C91.0929 14.0284 90.7265 14.3005 90.7265 14.8125C90.7265 15.3352 91.1845 15.6394 91.8142 15.6394C91.9987 15.6579 92.1851 15.6394 92.3623 15.5851C92.5394 15.5309 92.7038 15.4418 92.8455 15.3234C92.9872 15.2049 93.1034 15.0594 93.1872 14.8956C93.2709 14.7318 93.3206 14.5529 93.3331 14.3697V14.3697Z" fill="white"></path><path d="M96.0068 13.6016C96.0068 11.7664 96.9597 10.6038 98.4417 10.6038C98.8083 10.5871 99.1721 10.674 99.4907 10.8545C99.8092 11.0349 100.069 11.3014 100.24 11.6228H100.327V8.43294H101.485V16.5081H100.375V15.5905H100.284C100.099 15.9097 99.8301 16.1729 99.5054 16.3515C99.1808 16.5301 98.8129 16.6173 98.4417 16.6038C96.9495 16.6039 96.0068 15.4412 96.0068 13.6016ZM97.2027 13.6016C97.2027 14.8335 97.7891 15.5748 98.77 15.5748C99.7457 15.5748 100.349 14.8228 100.349 13.6067C100.349 12.3962 99.7393 11.6335 98.77 11.6335C97.7955 11.6335 97.2026 12.3798 97.2026 13.6016H97.2027Z" fill="white"></path><path d="M106.274 13.602C106.237 13.2203 106.282 12.8352 106.404 12.4714C106.526 12.1076 106.724 11.7731 106.984 11.4893C107.245 11.2056 107.562 10.9789 107.916 10.8238C108.27 10.6686 108.653 10.5885 109.041 10.5885C109.428 10.5885 109.811 10.6686 110.165 10.8238C110.519 10.9789 110.836 11.2056 111.097 11.4893C111.357 11.7731 111.555 12.1076 111.677 12.4714C111.8 12.8352 111.844 13.2203 111.807 13.602C111.844 13.984 111.801 14.3697 111.679 14.7341C111.557 15.0985 111.359 15.4336 111.099 15.7179C110.838 16.0022 110.521 16.2294 110.166 16.3848C109.812 16.5403 109.428 16.6206 109.041 16.6206C108.653 16.6206 108.269 16.5403 107.915 16.3848C107.56 16.2294 107.243 16.0022 106.982 15.7179C106.722 15.4336 106.524 15.0985 106.402 14.7341C106.28 14.3697 106.237 13.984 106.274 13.602V13.602ZM110.616 13.602C110.616 12.343 110.045 11.6068 109.042 11.6068C108.036 11.6068 107.47 12.343 107.47 13.602C107.47 14.871 108.036 15.6016 109.042 15.6016C110.045 15.6016 110.616 14.866 110.616 13.602Z" fill="white"></path><path d="M113.36 10.6991H114.475V11.6218H114.561C114.708 11.2904 114.956 11.0126 115.269 10.8271C115.583 10.6416 115.947 10.5577 116.312 10.587C116.597 10.5658 116.884 10.6084 117.15 10.7117C117.417 10.815 117.656 10.9764 117.851 11.1838C118.046 11.3913 118.192 11.6395 118.277 11.9101C118.362 12.1808 118.384 12.4668 118.342 12.7472V16.507H117.184V13.035C117.184 12.1017 116.775 11.6375 115.919 11.6375C115.725 11.6286 115.531 11.6612 115.352 11.7332C115.172 11.8053 115.01 11.9149 114.877 12.0547C114.744 12.1945 114.643 12.3611 114.581 12.5432C114.519 12.7252 114.497 12.9183 114.518 13.1093V16.507H113.36V10.6991Z" fill="white"></path><path d="M124.883 9.25351V10.726H126.154V11.6914H124.883V14.6779C124.883 15.2863 125.136 15.5527 125.712 15.5527C125.86 15.5522 126.007 15.5434 126.154 15.5262V16.481C125.946 16.5178 125.735 16.5374 125.524 16.5395C124.237 16.5395 123.724 16.0911 123.724 14.9713V11.6914H122.793V10.7259H123.724V9.25351H124.883Z" fill="white"></path><path d="M127.735 8.43294H128.883V11.6335H128.974C129.128 11.2991 129.382 11.0197 129.702 10.8335C130.022 10.6473 130.393 10.5634 130.763 10.5931C131.047 10.5778 131.33 10.6248 131.594 10.7306C131.857 10.8364 132.094 10.9985 132.287 11.2053C132.48 11.4121 132.625 11.6585 132.71 11.927C132.796 12.1954 132.821 12.4793 132.783 12.7583V16.5081H131.624V13.0411C131.624 12.1134 131.188 11.6436 130.37 11.6436C130.171 11.6274 129.971 11.6545 129.783 11.7229C129.596 11.7914 129.426 11.8995 129.285 12.0397C129.145 12.18 129.037 12.349 128.969 12.5349C128.901 12.7208 128.875 12.9191 128.893 13.116V16.5081H127.735L127.735 8.43294Z" fill="white"></path><path d="M139.533 14.9404C139.376 15.4712 139.035 15.9304 138.57 16.2376C138.106 16.5447 137.547 16.6803 136.991 16.6207C136.605 16.6308 136.221 16.5575 135.866 16.4059C135.511 16.2543 135.193 16.0281 134.936 15.7429C134.678 15.4576 134.486 15.1203 134.373 14.7542C134.26 14.3881 134.229 14.0021 134.282 13.6229C134.23 13.2426 134.262 12.8557 134.374 12.4885C134.487 12.1214 134.678 11.7825 134.935 11.4947C135.191 11.207 135.507 10.9772 135.861 10.8209C136.215 10.6645 136.599 10.5853 136.986 10.5886C138.618 10.5886 139.603 11.6927 139.603 13.5165V13.9164H135.461V13.9806C135.443 14.1938 135.47 14.4083 135.54 14.6105C135.611 14.8127 135.723 14.998 135.87 15.1547C136.017 15.3113 136.196 15.4358 136.394 15.5202C136.593 15.6045 136.807 15.6469 137.023 15.6445C137.3 15.6774 137.581 15.628 137.829 15.5027C138.077 15.3773 138.283 15.1816 138.419 14.9404L139.533 14.9404ZM135.461 13.0687H138.424C138.438 12.8738 138.411 12.678 138.345 12.4939C138.279 12.3098 138.174 12.1415 138.038 11.9998C137.902 11.8581 137.738 11.7462 137.556 11.6711C137.373 11.5961 137.177 11.5597 136.98 11.5641C136.78 11.5617 136.581 11.5989 136.395 11.6736C136.21 11.7483 136.041 11.8591 135.9 11.9993C135.758 12.1395 135.647 12.3064 135.571 12.49C135.496 12.6737 135.458 12.8705 135.461 13.0687H135.461Z" fill="white"></path><path d="M156.962 0.95907C159.758 0.95907 162.033 3.22001 162.033 5.999V42.0026C162.033 44.7816 159.758 47.0426 156.962 47.0426H6.03761C3.24163 47.0426 0.96687 44.7816 0.96687 42.0026V6.00093C0.96687 3.22194 3.24163 0.960996 6.03761 0.960996H156.962V0.95907ZM156.962 0H6.03761C2.71654 0 0 2.70003 0 6.00093V42.0026C0 45.3035 2.71654 48.0036 6.03761 48.0036H156.962C160.283 48.0036 163 45.3035 163 42.0026V6.00093C163 2.70003 160.283 0 156.962 0Z" fill="black"></path></g><rect x="0.5" y="0.5" width="162" height="47" rx="7.5" stroke="#B6B6B6"></rect><defs><clipPath id="clip0_1_14"><rect width="163" height="48" rx="8" fill="white"></rect></clipPath></defs></svg>